<?xml version="1.0" encoding="UTF-8"?>
<svg version="1.1" xmlns="http://www.w3.org/2000/svg" width="129" height="174">
<path d="M0 0 C2.74948854 1.0081458 3.81037622 1.64973952 5.2265625 4.265625 C7.31150393 11.63663006 6.76457672 19.12849224 3.25 25.92578125 C-2.37775515 35.26433745 -10.13858255 42.74393278 -18.375 49.8125 C-23.63661628 54.36480382 -27.67581288 59.01123465 -29 66 C-28.9448273 74.30349175 -24.63785581 80.43056505 -20 87 C-16 92.70434783 -16 92.70434783 -16 96 C-20.01479321 94.38066813 -22.80600975 91.57752468 -25.8125 88.5625 C-26.34077393 88.03406494 -26.86904785 87.50562988 -27.41333008 86.96118164 C-33.59353291 80.6011842 -39.9519034 73.00671452 -40.375 63.8125 C-40.25903491 56.64585714 -36.24766707 52.14424972 -31.5 47.125 C-28.06971069 43.81143131 -24.36839992 40.92557846 -20.5625 38.0625 C-7.0122772 27.90760447 -7.0122772 27.90760447 0 13 C0.06790675 10.75092848 0.08499984 8.49998395 0.0625 6.25 C0.05347656 5.07953125 0.04445312 3.9090625 0.03515625 2.703125 C0.02355469 1.81109375 0.01195312 0.9190625 0 0 Z " fill="#8A8A8A" transform="translate(81,0)"/>
<path d="M0 0 C0 0.66 0 1.32 0 2 C-1.22976562 2.29003906 -1.22976562 2.29003906 -2.484375 2.5859375 C-4.10085937 2.97652344 -4.10085937 2.97652344 -5.75 3.375 C-6.81734375 3.63023437 -7.8846875 3.88546875 -8.984375 4.1484375 C-11.55852722 4.87533541 -13.67600186 5.7026224 -16 7 C-1.92152498 12.53082947 13.39551728 12.37445027 28.3125 12.3125 C29.17941467 12.31134186 30.04632935 12.31018372 30.93951416 12.30899048 C60.24221865 12.81420841 60.24221865 12.81420841 88 5 C88 3.68 88 2.36 88 1 C89.32 1.33 90.64 1.66 92 2 C92.75 3.75 92.75 3.75 93 6 C88.11448688 13.10620089 77.82233735 14.7842739 69.94604492 16.29443359 C55.78333941 18.87111111 41.92745613 19.36329215 27.5625 19.3125 C26.04520294 19.31076279 26.04520294 19.31076279 24.49725342 19.30899048 C-13.97692917 19.22185184 -13.97692917 19.22185184 -29 13 C-29.3125 10.75 -29.3125 10.75 -29 8 C-23.22228585 1.64451444 -8.19582725 -4.09791363 0 0 Z " fill="#020202" transform="translate(29,147)"/>
<path d="M0 0 C0 0.66 0 1.32 0 2 C-2.45228048 3.61880601 -4.90933514 5.13364319 -7.4375 6.625 C-18.87129552 13.38318535 -18.87129552 13.38318535 -27.25 23.4375 C-28.29149645 28.38460812 -27.24817279 31.54112396 -25 36 C-23.96245994 37.53796973 -22.89937491 39.05898971 -21.8125 40.5625 C-18.66161741 45.08059847 -18.11890554 47.53721437 -19 53 C-21.41680552 58.60698881 -24.8612287 62.64176788 -30 66 C-32.21875 66.6640625 -32.21875 66.6640625 -34 67 C-32 63 -32 63 -30.875 61.125 C-29.65414855 58.16007504 -29.67874028 56.20881771 -30 53 C-31.22350954 50.42214735 -32.79865215 48.14269792 -34.4375 45.8125 C-38.83080442 39.38737638 -40.89228179 34.83933289 -40 27 C-37.23649229 17.96033321 -29.96942805 12.03313319 -22.03125 7.48828125 C-6.77952756 0 -6.77952756 0 0 0 Z " fill="#8A8A8A" transform="translate(104,35)"/>
<path d="M0 0 C0 0.66 0 1.32 0 2 C-2.45714547 2.83698386 -4.91558857 3.66972424 -7.375 4.5 C-8.07367188 4.73847656 -8.77234375 4.97695312 -9.4921875 5.22265625 C-14.7734375 7 -14.7734375 7 -17 7 C-17 7.66 -17 8.32 -17 9 C-9.95191568 9.91867627 -3.04232567 10.19284479 4.0625 10.1875 C5.19212158 10.18669434 6.32174316 10.18588867 7.4855957 10.18505859 C24.08197244 10.06719809 40.59525428 8.47122772 57 6 C56 9 56 9 54.45996094 10.10864258 C49.43347465 12.58523685 44.7838216 13.89902717 39.25 14.6875 C38.528125 14.80416016 37.80625 14.92082031 37.0625 15.04101562 C17.16182681 18.12005335 -12.71311 22.09790446 -31 12 C-31 10.68 -31 9.36 -31 8 C-21.0689736 2.44126177 -11.4320743 -0.57160371 0 0 Z " fill="#020202" transform="translate(45,95)"/>
<path d="M0 0 C-0.33 1.32 -0.66 2.64 -1 4 C10.74713096 5.22502669 22.2165945 5.7414333 33.875 3.6875 C40.04427264 2.73389003 43.42602755 3.30079982 48.55859375 6.8359375 C49.03425781 7.22007812 49.50992188 7.60421875 50 8 C50 8.66 50 9.32 50 10 C35.37306355 16.14928349 20.18182258 17.43423765 4.625 14.75 C3.62557373 14.58624878 3.62557373 14.58624878 2.60595703 14.41918945 C-2.03660182 13.52908356 -5.28077135 11.89024395 -9 9 C-10.125 7 -10.125 7 -10 5 C-7.05897867 1.32372334 -4.76576905 0 0 0 Z " fill="#010101" transform="translate(42,134)"/>
<path d="M0 0 C-0.66 1.65 -1.32 3.3 -2 5 C4.92892589 6.28503818 11.84588728 6.18975307 18.875 6.1875 C20.16462646 6.19031982 21.45425293 6.19313965 22.78295898 6.19604492 C31.31976472 6.16017374 39.50430919 5.60382044 47.91015625 4.14453125 C51 4 51 4 53.24609375 5.38671875 C53.82488281 5.91910156 54.40367188 6.45148438 55 7 C55.99 7.33 56.98 7.66 58 8 C58 8.66 58 9.32 58 10 C46.22532776 13.90752397 34.91299353 15.35650537 22.50927734 15.31567383 C20.50173058 15.31250273 18.49564865 15.33611978 16.48828125 15.36132812 C-3.27404618 15.37108248 -3.27404618 15.37108248 -9.33007812 9.8918457 C-9.88115234 9.26753662 -10.43222656 8.64322754 -11 8 C-10.01508224 4.35580428 -9.34173648 3.21085868 -6.0625 1.1875 C-3 0 -3 0 0 0 Z " fill="#010101" transform="translate(38,115)"/>
<path d="M0 0 C0.66 0 1.32 0 2 0 C1.79593517 3.57113449 1.08827711 4.90475365 -1.375 7.5625 C-16.42803454 18.80820965 -40.05694186 17.49051087 -57.82617188 17.39111328 C-61.25951447 17.37495522 -64.69169165 17.39109318 -68.125 17.41015625 C-95.13193591 17.43403205 -95.13193591 17.43403205 -104 13 C-104 12.34 -104 11.68 -104 11 C-102.7325293 11.10393066 -102.7325293 11.10393066 -101.43945312 11.20996094 C-90.45727928 12.03377056 -79.51090062 12.24163203 -68.5 12.25 C-67.57512787 12.25100708 -66.65025574 12.25201416 -65.69735718 12.25305176 C-30.87372996 13.17321887 -30.87372996 13.17321887 0 0 Z " fill="#020202" transform="translate(127,157)"/>
<path d="M0 0 C3.0848576 2.61745493 4.76408395 4.78118191 5.3828125 8.86328125 C5.65946882 14.35029817 4.75142823 17.49354435 1.0625 21.75 C-5.50161762 28.7065377 -14.3726193 33.11234129 -23.9375 33.75 C-22.68480031 29.99190093 -21.58582553 29.73503025 -18.1875 27.875 C-14.16449602 25.55646418 -11.00928334 23.28720506 -7.9375 19.75 C-7.07125 18.76 -7.07125 18.76 -6.1875 17.75 C-4.67136486 15.32418377 -4.14650387 13.60638626 -3.9375 10.75 C-4.69947729 7.54969538 -5.52532886 6.112211 -8 3.9375 C-12.0275416 2.30934489 -15.64973668 2.49777863 -19.9375 2.75 C-18.9375 -0.25 -18.9375 -0.25 -16.5 -1.5 C-10.77297103 -2.70569031 -5.40193669 -2.29869647 0 0 Z " fill="#020202" transform="translate(123.9375,95.25)"/>
</svg>
