<?xml version="1.0" encoding="UTF-8"?>
<svg version="1.1" xmlns="http://www.w3.org/2000/svg" width="1280" height="1275">
<path d="M0 0 C1.52590759 -0.01073296 1.52590759 -0.01073296 3.0826416 -0.02168274 C4.77171127 -0.02571609 4.77171127 -0.02571609 6.49490356 -0.02983093 C7.67397278 -0.03640213 8.85304199 -0.04297333 10.06784058 -0.04974365 C13.99680934 -0.06955781 17.9257647 -0.08116911 21.85476685 -0.09111023 C23.21174261 -0.09515896 24.56871816 -0.09927592 25.92569351 -0.10346031 C32.31747306 -0.12254558 38.70924099 -0.1367554 45.10104358 -0.14507228 C52.44068723 -0.15478204 59.78002421 -0.18092089 67.11956012 -0.22157317 C72.81070296 -0.25199209 78.50175944 -0.26656623 84.19298184 -0.26985329 C87.58128579 -0.2721797 90.96926362 -0.28081438 94.3574791 -0.30631447 C138.84747581 -0.59477704 174.34022882 14.71141741 206.30007935 45.14717102 C207.35968872 46.12750305 207.35968872 46.12750305 208.44070435 47.12763977 C269.94621381 105.75789168 283.14515592 207.04519111 286.09329224 296.04463196 C286.17564759 299.74526573 286.23979796 303.44611112 286.30007935 307.14717102 C286.31667603 307.99650208 286.33327271 308.84583313 286.35037231 309.72090149 C286.42329561 313.72628075 286.42235836 317.72583228 286.34597778 321.7311554 C286.31162097 323.53963948 286.28488048 325.34827105 286.26199341 327.15693665 C285.78317141 360.98717676 282.8651898 394.93711119 276.30007935 428.14717102 C275.96387573 429.86130188 275.96387573 429.86130188 275.62088013 431.61006165 C269.35360692 462.94200479 259.42373667 492.9438039 244.30007935 521.14717102 C243.68906372 522.29830383 243.0780481 523.44943665 242.44851685 524.63545227 C218.5546162 568.04762155 180.12898129 600.89964915 132.4524231 614.90498352 C130.4871771 615.45201904 128.51975262 615.99129733 126.55007935 616.52217102 C125.67714233 616.76096985 124.80420532 616.99976868 123.90481567 617.24580383 C109.15639808 620.99910705 94.22343484 621.44077739 79.09608459 621.38768005 C77.2170023 621.38855433 75.33792025 621.39030937 73.45883948 621.39285839 C68.34370516 621.39729237 63.22865592 621.38938317 58.11353242 621.37930226 C52.5793557 621.37061256 47.04518322 621.37359181 41.51100159 621.37510681 C31.93869338 621.37615219 22.36641257 621.369912 12.79411125 621.35863113 C-1.04558695 621.34233186 -14.88527198 621.33716361 -28.72497874 621.33465515 C-51.18253542 621.33028498 -73.64007771 621.31701159 -96.09762573 621.29804993 C-117.90459111 621.27965893 -139.71155258 621.26550257 -161.51852417 621.2570343 C-162.52814016 621.25663972 -162.52814016 621.25663972 -163.55815243 621.25623717 C-170.31793564 621.25359996 -177.07771887 621.25104836 -183.83750212 621.24855945 C-240.45831909 621.22770406 -297.07911788 621.1918765 -353.69992065 621.14717102 C-353.36992065 634.67717102 -353.03992065 648.20717102 -352.69992065 662.14717102 C-348.85602188 662.14495041 -345.01212311 662.1427298 -341.05174255 662.14044189 C-305.84150593 662.12056308 -270.63127001 662.10562396 -235.42102901 662.09610569 C-230.8107865 662.09485491 -226.200544 662.0935606 -221.59030151 662.09223938 C-220.67244509 662.09197707 -219.75458866 662.09171476 -218.80891841 662.0914445 C-203.92688129 662.08708748 -189.04484802 662.07919976 -174.16281319 662.07001822 C-158.90425116 662.06068256 -143.64569115 662.0551156 -128.38712639 662.05308253 C-118.96392511 662.05170712 -109.54073471 662.04735556 -100.11753678 662.03925455 C-93.66478867 662.03398817 -87.21204623 662.03236648 -80.75929613 662.03366964 C-77.03064916 662.03431319 -73.30202123 662.03329361 -69.57337761 662.02796555 C-65.54059987 662.02224462 -61.50786323 662.02416984 -57.4750824 662.0269165 C-56.28347411 662.02400366 -55.09186583 662.02109082 -53.8641482 662.01808971 C-52.25705796 662.02107628 -52.25705796 662.02107628 -50.61750126 662.02412319 C-49.21918114 662.02355361 -49.21918114 662.02355361 -47.79261214 662.02297252 C-45.69992065 662.14717102 -45.69992065 662.14717102 -44.69992065 663.14717102 C-44.59227705 664.56011468 -44.55311345 665.97834783 -44.54170227 667.39533997 C-44.53191345 668.31350494 -44.52212463 669.23166992 -44.51203918 670.17765808 C-44.50628372 671.19433563 -44.50052826 672.21101318 -44.49459839 673.25849915 C-44.48469879 674.32420135 -44.47479919 675.38990356 -44.46459961 676.48789978 C-44.4327597 680.05138374 -44.40808171 683.61488004 -44.3835144 687.17842102 C-44.36290663 689.67952284 -44.34190927 692.18062148 -44.32054138 694.68171692 C-44.27642131 699.96477953 -44.23543782 705.24785241 -44.19723511 710.53096008 C-44.14917597 717.17479461 -44.09519951 723.81856742 -44.03931236 730.46234131 C-43.9323509 743.18549167 -43.84116276 755.90862705 -43.76825523 768.63201904 C-43.72887563 775.28716145 -43.67397621 781.94180612 -43.5990324 788.59664154 C-43.55891318 792.36515904 -43.530995 796.13369733 -43.50621223 799.90234375 C-43.49245015 801.58787319 -43.47346532 803.2733707 -43.4484539 804.95877075 C-43.01617484 834.62391229 -53.51971258 858.25380376 -73.81710815 879.64717102 C-85.75244809 891.92918058 -99.62088842 901.13643514 -114.69992065 909.14717102 C-115.60097534 909.63346985 -115.60097534 909.63346985 -116.52023315 910.1295929 C-182.0736857 945.30628867 -262.8652294 949.63308029 -335.69992065 951.14717102 C-336.70281128 951.17053528 -337.7057019 951.19389954 -338.73898315 951.2179718 C-423.94603445 952.98322931 -524.60633884 945.97250291 -625.31735229 874.8664093 C-647.98940672 852.77079415 -662.38118056 822.59069966 -663.15511692 790.84652102 C-663.22887552 784.78460599 -663.23319054 778.72479911 -663.20816028 772.66269958 C-663.19690985 768.85951919 -663.20903914 765.05639625 -663.21800232 761.2532196 C-663.23184439 753.82747256 -663.22444502 746.40189705 -663.20932674 738.97615836 C-663.19234585 730.30036943 -663.19569224 721.62462182 -663.19942082 712.94882139 C-663.20528334 697.44906701 -663.19119366 681.94939415 -663.16647339 666.44966125 C-663.14257822 651.46525514 -663.13546315 636.480958 -663.14596558 621.49653625 C-663.15742084 605.1236537 -663.15924665 588.7508214 -663.14486748 572.3779394 C-663.14334189 570.62586797 -663.14182154 568.87379653 -663.14030647 567.12172508 C-663.13954866 566.26001221 -663.13879084 565.39829933 -663.13801007 564.51047394 C-663.13330107 558.48719764 -663.13509456 552.46394403 -663.13937187 546.44066811 C-663.1443412 539.0793933 -663.13812758 531.71822073 -663.11847758 524.3569691 C-663.10872451 520.61314735 -663.1033673 516.86947994 -663.11137009 513.12565041 C-663.20160968 465.7622327 -655.31264958 420.63322083 -621.69992065 385.14717102 C-620.8285144 384.19971008 -619.95710815 383.25224915 -619.05929565 382.27607727 C-595.01624016 356.7141166 -561.53083475 343.79495348 -527.94992065 336.39717102 C-527.08407349 336.1984137 -526.21822632 335.99965637 -525.32614136 335.7948761 C-504.31063882 331.41922528 -482.52933619 331.84901843 -461.16857219 331.87447393 C-457.15625506 331.87699272 -453.14396094 331.86782852 -449.13165283 331.86009216 C-442.20436045 331.8481482 -435.27709088 331.84294463 -428.34978867 331.84221077 C-418.31059616 331.84087347 -408.2714582 331.82566163 -398.23228516 331.8067156 C-381.9055858 331.77599702 -365.57888505 331.75177435 -349.25216675 331.73384094 C-347.79185489 331.73223192 -347.79185489 331.73223192 -346.30204178 331.7305904 C-335.43943006 331.71876868 -324.57681778 331.70855994 -313.71420288 331.70014954 C-309.77177936 331.69707507 -305.82935586 331.69398635 -301.88693237 331.69087219 C-300.91399407 331.69010685 -299.94105578 331.68934151 -298.9386345 331.68855298 C-282.6633067 331.67543076 -266.38801881 331.65074142 -250.11272061 331.61712879 C-240.10909629 331.59695722 -230.10555757 331.58653289 -220.10191275 331.589118 C-213.24133267 331.59016018 -206.38082004 331.58040322 -199.52026354 331.56247897 C-195.57615509 331.55252858 -191.63219607 331.54720239 -187.68807983 331.55524635 C-166.23418082 331.59476352 -145.22886052 330.82126894 -124.44992065 324.95967102 C-123.36275757 324.65851379 -122.27559448 324.35735657 -121.15548706 324.04707336 C-111.5539675 321.28697317 -102.57143272 317.72431414 -93.69992065 313.14717102 C-92.65287964 312.60939026 -92.65287964 312.60939026 -91.58468628 312.06074524 C-60.95346862 296.08875318 -39.15945565 271.23074569 -24.69992065 240.14717102 C-24.17785034 239.06564758 -23.65578003 237.98412415 -23.1178894 236.86982727 C-14.94655996 219.08263257 -10.38514965 199.47408008 -7.69992065 180.14717102 C-7.53120453 178.94990891 -7.3624884 177.75264679 -7.18865967 176.519104 C-6.3908888 169.21828518 -6.52983006 161.8707576 -6.51046753 154.5358429 C-6.50251417 152.86128028 -6.49412536 151.18671969 -6.4853363 149.51216125 C-6.46736036 145.92239983 -6.4523169 142.33264261 -6.43955994 138.74285889 C-6.41926456 133.0710005 -6.39162725 127.39919222 -6.36288452 121.72737122 C-6.29784622 108.67564043 -6.24217342 95.62387297 -6.18689728 82.57209778 C-6.1360747 70.5849865 -6.08327917 58.59789373 -6.02237177 46.61082888 C-5.99397635 40.9669975 -5.97039931 35.32317234 -5.95044708 29.67930508 C-5.93710383 26.18081354 -5.91969091 22.68235108 -5.9011364 19.18388367 C-5.89335248 17.55562064 -5.8872952 15.92734835 -5.88304329 14.29907227 C-5.87703631 12.08623843 -5.86500852 9.87351903 -5.85140991 7.66072083 C-5.84625618 6.41969353 -5.84110245 5.17866623 -5.83579254 3.90003204 C-5.61245186 -0.62500887 -4.08863218 0.01965832 0 0 Z M-218.69992065 759.14717102 C-219.27484253 759.7117804 -219.8497644 760.27638977 -220.44210815 760.85810852 C-231.14615882 772.22769602 -233.31634874 786.24622467 -233.0085144 801.15498352 C-232.49781739 812.39879404 -228.23067716 821.1525382 -221.69992065 830.14717102 C-221.0657019 831.04049133 -221.0657019 831.04049133 -220.41867065 831.95185852 C-211.45517051 843.64074723 -196.76821873 849.06554862 -182.69992065 851.14717102 C-169.3222053 852.42123915 -154.98309466 848.04615685 -144.53585815 839.69795227 C-133.5435449 830.39350846 -125.96951732 818.52835364 -123.69992065 804.14717102 C-122.99310116 793.67233779 -123.76592354 784.9821638 -127.69992065 775.14717102 C-128.02734253 774.28736633 -128.3547644 773.42756165 -128.69210815 772.54170227 C-134.80684024 758.50459831 -146.59868824 749.91319819 -160.38742065 744.33467102 C-164.85046992 742.70604954 -168.92610795 741.42258329 -173.69992065 741.14717102 C-174.33542847 741.09689758 -174.97093628 741.04662415 -175.6257019 740.99482727 C-192.59803167 740.21912664 -207.03071454 747.31066446 -218.69992065 759.14717102 Z " fill="#C7C7C7" transform="translate(992.6999206542969,320.8528289794922)"/>
<path d="M0 0 C0.99643713 -0.00282738 1.99287426 -0.00565475 3.01950645 -0.00856781 C8.30768457 -0.02344432 13.59583629 -0.03274273 18.8840332 -0.03710938 C23.16439481 -0.04146335 27.44455136 -0.05525196 31.72485352 -0.078125 C58.49768454 -0.21819359 84.90582019 0.43564629 111.54296875 3.203125 C113.09170181 3.35675507 113.09170181 3.35675507 114.67172241 3.51348877 C120.12010312 4.05525448 125.5520671 4.67657838 130.98046875 5.390625 C132.15003616 5.54210999 132.15003616 5.54210999 133.3432312 5.69665527 C169.18835413 10.40347792 205.43482905 18.39735008 238.54296875 33.203125 C239.52604004 33.63995605 240.50911133 34.07678711 241.52197266 34.52685547 C255.74737985 40.91874366 268.96165399 47.97515293 281.54296875 57.203125 C282.15640137 57.64446777 282.76983398 58.08581055 283.40185547 58.54052734 C312.33422353 79.50133089 334.30587219 109.41315113 340.16185117 145.16137195 C341.47010515 155.60273109 341.09449836 166.23534824 341.05120838 176.74282134 C341.03995827 180.55421997 341.05208724 184.36556127 341.06105042 188.17695618 C341.07489349 195.61941654 341.06749197 203.06170576 341.05237483 210.50415779 C341.03539179 219.20143395 341.03874068 227.89866892 341.04246891 236.59595656 C341.04833181 252.13667781 341.03424123 267.67731776 341.00952148 283.21801758 C340.98563445 298.23725435 340.97850799 313.25638241 340.98901367 328.27563477 C341.00047407 344.6888223 341.00228787 361.10195969 340.98791558 377.51514667 C340.98639001 379.27230926 340.98486965 381.02947185 340.98335457 382.78663445 C340.98259675 383.65083001 340.98183894 384.51502557 340.98105816 385.40540888 C340.97635244 391.44127089 340.97814033 397.47711024 340.98241997 403.51297188 C340.98739417 410.89285423 340.98115495 418.27263468 340.96152567 425.65249396 C340.95178526 429.40466438 340.94640085 433.15668112 340.95441818 436.90885925 C341.03951501 481.66092191 334.92144537 525.31578357 304.54296875 560.203125 C303.33060547 561.63205078 303.33060547 561.63205078 302.09375 563.08984375 C273.0638865 596.56965846 226.54629488 613.14631549 183.54296875 617.203125 C173.26025629 617.80543394 162.96297474 617.74877751 152.66683471 617.70795333 C148.65649163 617.69661912 144.6462032 617.70890533 140.63586426 617.71813965 C133.7151506 617.73110708 126.79455824 617.73015339 119.87384224 617.71954536 C109.83773514 617.7044512 99.80176705 617.71463493 89.76566767 617.73106455 C73.43418804 617.75740786 57.10273999 617.76838889 40.77124023 617.76733398 C39.79797875 617.76727566 38.82471726 617.76721734 37.821963 617.76715725 C33.87942122 617.76689145 29.93687945 617.76657418 25.99433768 617.76619399 C15.14458081 617.7652277 4.2948249 617.76655651 -6.55493164 617.76928711 C-7.52667634 617.769527 -8.49842105 617.76976689 -9.49961256 617.77001406 C-25.77731659 617.77444035 -42.05499154 617.79074844 -58.33267838 617.8145079 C-68.3280537 617.8284683 -78.32331733 617.83155882 -88.31869627 617.81988501 C-95.17928103 617.81248993 -102.03980998 617.81572231 -108.90038949 617.82684345 C-112.83919525 617.83283646 -116.77784382 617.83422704 -120.71663857 617.82196617 C-170.00343892 617.67824027 -218.31734238 623.63319297 -257.45703125 656.203125 C-257.98506348 656.64011719 -258.5130957 657.07710937 -259.05712891 657.52734375 C-266.07333342 663.41380124 -271.92555489 669.92435855 -277.45703125 677.203125 C-278.24722656 678.21632813 -279.03742188 679.22953125 -279.8515625 680.2734375 C-296.49375956 702.14104707 -306.9771746 728.98259893 -311.85795593 755.91690063 C-312.27537855 758.20667013 -312.72520985 760.49066766 -313.19981384 762.76927185 C-316.53519771 780.23856766 -315.93937069 798.05328334 -315.96314216 815.76087856 C-315.97262834 820.50007905 -315.9988385 825.23918906 -316.02314758 829.97833252 C-316.06653803 838.92017992 -316.09525253 847.8620095 -316.11847097 856.80392957 C-316.1456713 866.99772273 -316.18957259 877.19142362 -316.23475969 887.38515043 C-316.32721195 908.32442539 -316.39907153 929.26372798 -316.45703125 950.203125 C-332.2791645 950.29712499 -348.1012207 950.36737389 -363.92356491 950.41037369 C-371.27238118 950.43088184 -378.62102262 950.4587734 -385.96972656 950.50488281 C-392.38487738 950.545115 -398.79990142 950.57064281 -405.21517491 950.57947898 C-408.60306544 950.58463332 -411.99030989 950.59868731 -415.37813568 950.62604523 C-460.64238334 950.97666914 -497.76704113 935.243566 -530.20703125 903.703125 C-543.03598317 890.50028741 -553.38211285 875.15386339 -562.45703125 859.203125 C-562.79976074 858.60419434 -563.14249023 858.00526367 -563.49560547 857.38818359 C-572.85460382 840.88785286 -579.60733026 823.21115847 -585.45703125 805.203125 C-585.74433105 804.32156738 -586.03163086 803.44000977 -586.32763672 802.53173828 C-598.11073319 765.77610048 -603.88197785 726.64903863 -606.45703125 688.203125 C-606.54315674 687.0793042 -606.62928223 685.9554834 -606.71801758 684.79760742 C-607.75700745 670.06441491 -607.64438715 655.29256025 -607.64233398 640.53100586 C-607.64225321 637.45705214 -607.64913102 634.38324902 -607.6628418 631.30932617 C-607.78293792 603.88413426 -606.64002265 576.77797355 -602.83203125 549.578125 C-602.64078674 548.19376251 -602.64078674 548.19376251 -602.44567871 546.78143311 C-595.44694532 496.6779816 -581.06625907 445.28162767 -550.45703125 404.203125 C-550.01391602 403.6045166 -549.57080078 403.0059082 -549.11425781 402.38916016 C-539.29018953 389.22462161 -528.52433319 377.21834383 -515.45703125 367.203125 C-514.46316406 366.39359375 -513.46929688 365.5840625 -512.4453125 364.75 C-504.32486524 358.18418269 -495.72409372 352.99327942 -486.45703125 348.203125 C-485.54896729 347.72963623 -485.54896729 347.72963623 -484.62255859 347.24658203 C-458.85238059 333.99718774 -431.19429404 328.86232299 -402.45558167 328.96261597 C-400.57410068 328.9617421 -398.69261994 328.95998779 -396.81114048 328.95743763 C-391.68008608 328.95299576 -386.54911622 328.96092397 -381.41807258 328.97099376 C-375.87022728 328.97967184 -370.32238632 328.97670503 -364.77453613 328.97518921 C-355.17545515 328.9741431 -345.57640146 328.98039095 -335.97732735 328.99166489 C-322.09886806 329.00795423 -308.22042191 329.0131314 -294.3419541 329.01564087 C-271.82228141 329.02001259 -249.30262305 329.03329023 -226.78295898 329.05224609 C-204.91381912 329.07063305 -183.04468316 329.0847914 -161.17553711 329.09326172 C-160.16328546 329.0936563 -160.16328546 329.0936563 -159.13058427 329.09405885 C-152.35323843 329.09669603 -145.57589256 329.09924763 -138.79854667 329.10173657 C-82.01803081 329.12259681 -25.23753297 329.15842827 31.54296875 329.203125 C31.54296875 315.673125 31.54296875 302.143125 31.54296875 288.203125 C-70.42703125 288.203125 -172.39703125 288.203125 -277.45703125 288.203125 C-277.68390625 262.628125 -277.91078125 237.053125 -278.14453125 210.703125 C-278.26380981 198.62686523 -278.26380981 198.62686523 -278.38549805 186.30664062 C-278.46252441 176.41308594 -278.46252441 176.41308594 -278.4947052 171.76940918 C-278.5180644 168.55249521 -278.55009409 165.3357981 -278.58760071 162.11901855 C-278.63537196 157.99667201 -278.66772596 153.87445721 -278.68962634 149.75189495 C-278.70009601 148.2509068 -278.71566505 146.74994183 -278.73736131 145.24907398 C-279.14411293 116.34051742 -268.3504752 91.69549789 -248.52441406 70.86791992 C-224.8405679 46.71290098 -193.11811893 32.66738279 -161.45703125 22.203125 C-160.62397461 21.9251709 -159.79091797 21.6472168 -158.93261719 21.36083984 C-127.51918778 11.09131499 -94.19928297 6.66517664 -61.45703125 3.203125 C-59.6788501 3.01411621 -59.6788501 3.01411621 -57.86474609 2.82128906 C-38.59035596 0.8248331 -19.36977816 0.03798746 0 0 Z M-185.45703125 118.203125 C-195.45851265 131.48095375 -200.20205254 145.8775079 -198.02734375 162.484375 C-195.42895818 176.98400806 -188.34169224 189.62231705 -176.4140625 198.45703125 C-162.35906407 207.57514851 -148.44590322 210.76196831 -131.90234375 207.98046875 C-117.16961024 204.65641663 -104.68790247 195.87483837 -96.45703125 183.203125 C-88.57353915 169.54115702 -86.87689702 155.05821975 -90.359375 139.9296875 C-94.60603029 125.51221722 -102.76960144 114.32965243 -115.6953125 106.66796875 C-139.58431786 93.99699702 -166.84837518 97.97494426 -185.45703125 118.203125 Z " fill="#000000" transform="translate(607.45703125,-0.203125)"/>
<path d="M0 0 C-1.48653506 3.46629835 -3.45722351 5.69022036 -6.1328125 8.328125 C-7.34130859 9.52695313 -7.34130859 9.52695313 -8.57421875 10.75 C-9.41597656 11.575 -10.25773437 12.4 -11.125 13.25 C-11.97449219 14.09046875 -12.82398438 14.9309375 -13.69921875 15.796875 C-15.79504923 17.86915683 -17.89540713 19.93662393 -20 22 C-20 16.49660516 -14.64166167 12.81716344 -11 9 C-9.74703125 7.68515625 -9.74703125 7.68515625 -8.46875 6.34375 C-2.28560127 0 -2.28560127 0 0 0 Z " fill="#141414" transform="translate(370,62)"/>
<path d="M0 0 C0.66 0.33 1.32 0.66 2 1 C-4.93 7.93 -11.86 14.86 -19 22 C-19.66 21.67 -20.32 21.34 -21 21 C-7.04255319 5.65957447 -7.04255319 5.65957447 0 0 Z " fill="#1F1F1F" transform="translate(89,369)"/>
</svg>
